<svg width="24" height="24" viewBox="0 0 24 24" fill="none" xmlns="http://www.w3.org/2000/svg">
<g id="GearSix">
<path id="Vector" d="M21.8604 9.33586L21.8609 9.33616C21.9475 9.38304 22.023 9.44797 22.0823 9.52655C22.1415 9.60506 22.1833 9.69537 22.2046 9.79137C22.5215 11.2467 22.5215 12.7532 22.2046 14.2085L22.2045 14.2091C22.1847 14.3046 22.1445 14.3946 22.0867 14.4731C22.029 14.5516 21.955 14.6167 21.8697 14.6641L19.6385 15.9015L19.6225 15.9104L19.6138 15.9266C19.4828 16.1698 19.3523 16.4029 19.2127 16.6262L19.2029 16.6418L19.2032 16.6602L19.2407 19.2102L19.2407 19.2104C19.2424 19.3072 19.2234 19.4033 19.1849 19.4921C19.1464 19.581 19.0893 19.6605 19.0175 19.7255L19.0173 19.7257C17.9156 20.7322 16.6093 21.4887 15.188 21.9433C15.1202 21.9633 15.0502 21.975 14.9796 21.9781C14.856 21.9794 14.7347 21.9438 14.6313 21.8759L14.6313 21.8758L14.629 21.8744L12.4353 20.5619L12.4205 20.5531H12.4032H11.5969H11.5796L11.5648 20.562L9.38038 21.8745L9.38025 21.8746C9.29586 21.9256 9.20161 21.9581 9.10372 21.9699C9.00589 21.9818 8.90665 21.9728 8.81256 21.9435C7.39412 21.4869 6.08883 20.7342 4.98311 19.7353C4.91184 19.6678 4.85521 19.5864 4.81673 19.4962C4.7782 19.4058 4.7587 19.3084 4.75944 19.2101C4.75944 19.21 4.75944 19.2099 4.75944 19.2098L4.80631 16.6605L4.80667 16.6411L4.796 16.6249C4.64855 16.4013 4.51521 16.1688 4.39675 15.9286L4.3881 15.911L4.37101 15.9015L2.13976 14.664L2.13921 14.6637C2.05264 14.6169 1.97715 14.5519 1.91785 14.4734C1.85858 14.3948 1.81685 14.3045 1.7955 14.2084C1.47864 12.7531 1.47865 11.2467 1.79552 9.79137L1.79552 9.79138L1.79569 9.79054C1.81531 9.69413 1.85625 9.60332 1.91552 9.52479C1.97479 9.44626 2.05089 9.38199 2.13822 9.33668L2.13824 9.33671L2.13986 9.3358L4.36173 8.09831L4.37769 8.08942L4.38635 8.07333C4.51738 7.82999 4.64751 7.59772 4.79582 7.37525L4.80667 7.35898L4.80631 7.33943L4.75944 4.78947C4.75771 4.69266 4.77674 4.59661 4.81524 4.50777C4.85373 4.41894 4.91081 4.33937 4.98262 4.27443L4.98285 4.27422C6.08468 3.26756 7.39112 2.51101 8.81264 2.05643C8.90671 2.02713 9.00592 2.01811 9.10372 2.02997C9.20161 2.04183 9.29586 2.07433 9.38025 2.12532L9.38038 2.1254L11.5648 3.4379L11.5806 3.44743L11.5991 3.44679C11.8695 3.43746 12.1306 3.43746 12.401 3.44679L12.4195 3.44743L12.4354 3.4379L14.6198 2.1254L14.6199 2.12532C14.7043 2.07433 14.7985 2.04183 14.8964 2.02997C14.9942 2.01811 15.0935 2.02713 15.1875 2.05644C16.607 2.51063 17.9128 3.26357 19.017 4.26459C19.0883 4.33205 19.1449 4.41346 19.1834 4.50375C19.222 4.59422 19.2415 4.69167 19.2407 4.79001C19.2407 4.79003 19.2407 4.79006 19.2407 4.79008L19.2032 7.33966L19.2029 7.35842L19.213 7.37423C19.3555 7.59717 19.4855 7.82945 19.6033 8.07108L19.6119 8.0888L19.6291 8.09836L21.8604 9.33586ZM15.4818 14.3264C15.942 13.6378 16.1876 12.8282 16.1876 12C16.1876 10.8894 15.7464 9.82425 14.9611 9.03894C14.1758 8.25363 13.1107 7.81245 12.0001 7.81245C11.1719 7.81245 10.3623 8.05805 9.67362 8.51817C8.98499 8.9783 8.44827 9.6323 8.13133 10.3975C7.81438 11.1626 7.73146 12.0046 7.89303 12.8169C8.05461 13.6292 8.45343 14.3753 9.03906 14.961C9.62469 15.5466 10.3708 15.9454 11.1831 16.107C11.9954 16.2686 12.8374 16.1856 13.6026 15.8687C14.3677 15.5518 15.0217 15.015 15.4818 14.3264Z" fill="#757575" stroke="#757575" stroke-width="0.125"/>
</g>
</svg>
